<svg width="538" height="97" viewBox="0 0 538 97" fill="none" xmlns="http://www.w3.org/2000/svg">
<g clip-path="url(#clip0_8012_214)">
<rect width="96.208" height="96.208" rx="48.104" fill="#0B68F7"/>
<path d="M47.338 21.977V21.978H47.339L47.3399 21.977L47.3409 21.978C47.3429 21.978 47.3448 21.977 47.3468 21.977L47.3458 21.978C48.0663 21.9892 48.7638 22.2319 49.3351 22.6713C49.9078 23.1119 50.3235 23.7255 50.5187 24.4213L60.4835 59.8549L65.3839 46.7914C65.6231 46.1531 66.0512 45.6027 66.6114 45.2143C67.1716 44.8259 67.837 44.6179 68.5187 44.6176H146.024C146.912 44.6176 147.764 44.9701 148.392 45.5981C149.02 46.2262 149.373 47.0789 149.373 47.9672C149.373 48.8554 149.02 49.7074 148.392 50.3354C147.764 50.9634 146.912 51.3158 146.024 51.3159H70.8399L63.1632 71.7817L63.1642 71.7827C62.9164 72.4437 62.4656 73.01 61.877 73.3998C61.2886 73.7896 60.592 73.9841 59.8868 73.9545C59.1815 73.9248 58.503 73.6728 57.9493 73.2348C57.4648 72.8515 57.0973 72.3425 56.8849 71.7661L56.8028 71.5151L47.1251 37.0961L43.4132 48.9653C43.2005 49.6463 42.7759 50.2416 42.2013 50.6645C41.6983 51.0346 41.1034 51.2554 40.4845 51.3051L40.2179 51.3159H-31.787C-32.6752 51.3159 -33.5271 50.9634 -34.1552 50.3354C-34.7832 49.7074 -35.1365 48.8554 -35.1366 47.9672C-35.1366 47.0789 -34.7833 46.2262 -34.1552 45.5981C-33.5271 44.9701 -32.6752 44.6176 -31.787 44.6176H37.756L44.0948 24.3276C44.3103 23.6374 44.7433 23.0355 45.3292 22.6118C45.9115 22.1908 46.6139 21.9693 47.3321 21.978L47.3331 21.977H47.338Z" fill="white" stroke="white" stroke-width="1.03851"/>
</g>
<rect x="3" y="3" width="90.208" height="90.208" rx="45.104" stroke="white" stroke-width="6"/>
<path d="M125.708 89.4216C124.185 89.4216 123.017 89.0154 122.205 88.2031C121.393 87.3907 120.986 86.1976 120.986 84.6237V42.0516C120.986 40.4777 121.393 39.2845 122.205 38.4722C123.017 37.6598 124.16 37.2537 125.632 37.2537C127.155 37.2537 128.323 37.6598 129.135 38.4722C129.948 39.2845 130.354 40.4777 130.354 42.0516V47.9919L129.516 45.7071C130.278 43.1178 131.826 41.0361 134.162 39.4622C136.548 37.8883 139.315 37.1013 142.463 37.1013C145.712 37.1013 148.555 37.8883 150.992 39.4622C153.48 41.0361 155.41 43.2701 156.78 46.1641C158.151 49.0073 158.837 52.4344 158.837 56.4454C158.837 60.4056 158.151 63.858 156.78 66.8028C155.41 69.6968 153.506 71.9307 151.069 73.5047C148.632 75.0786 145.763 75.8656 142.463 75.8656C139.366 75.8656 136.649 75.104 134.314 73.5808C131.978 72.0069 130.405 69.976 129.592 67.4882H130.506V84.6237C130.506 86.1976 130.075 87.3907 129.211 88.2031C128.399 89.0154 127.231 89.4216 125.708 89.4216ZM139.797 68.6306C141.676 68.6306 143.326 68.1736 144.748 67.2597C146.169 66.3459 147.261 65.0004 148.022 63.2234C148.835 61.3956 149.241 59.1363 149.241 56.4454C149.241 52.3836 148.378 49.3627 146.651 47.3826C144.925 45.3517 142.641 44.3363 139.797 44.3363C137.919 44.3363 136.269 44.7933 134.847 45.7071C133.425 46.5703 132.308 47.9157 131.496 49.7435C130.735 51.5205 130.354 53.7545 130.354 56.4454C130.354 60.4563 131.217 63.5026 132.943 65.5843C134.669 67.6152 136.954 68.6306 139.797 68.6306ZM178.913 75.8656C176.222 75.8656 173.81 75.3578 171.678 74.3424C169.596 73.2762 167.946 71.8546 166.727 70.0776C165.56 68.3006 164.976 66.2951 164.976 64.0611C164.976 61.3195 165.687 59.1617 167.108 57.5877C168.53 55.963 170.84 54.7953 174.038 54.0845C177.237 53.3737 181.527 53.0183 186.909 53.0183H190.717V58.5016H186.985C183.837 58.5016 181.324 58.6539 179.446 58.9586C177.567 59.2632 176.222 59.7963 175.409 60.5579C174.648 61.2687 174.267 62.2841 174.267 63.6042C174.267 65.2796 174.851 66.6505 176.019 67.7167C177.186 68.7829 178.811 69.316 180.893 69.316C182.568 69.316 184.041 68.9352 185.31 68.1736C186.63 67.3613 187.671 66.2697 188.432 64.8989C189.194 63.528 189.575 61.9541 189.575 60.1771V51.419C189.575 48.8804 189.016 47.0526 187.899 45.9356C186.782 44.8186 184.904 44.2602 182.264 44.2602C180.791 44.2602 179.192 44.4379 177.466 44.7933C175.79 45.1487 174.013 45.7579 172.135 46.621C171.17 47.078 170.307 47.2049 169.545 47.0018C168.834 46.7987 168.276 46.3926 167.87 45.7833C167.464 45.1233 167.26 44.4125 167.26 43.6509C167.26 42.8893 167.464 42.1531 167.87 41.4423C168.276 40.6807 168.961 40.1223 169.926 39.7669C172.261 38.8022 174.495 38.1168 176.628 37.7106C178.811 37.3044 180.791 37.1013 182.568 37.1013C186.224 37.1013 189.219 37.6598 191.555 38.7768C193.941 39.8938 195.718 41.5946 196.886 43.8794C198.054 46.1133 198.637 49.0073 198.637 52.5613V70.8392C198.637 72.4131 198.257 73.6316 197.495 74.4947C196.733 75.3071 195.642 75.7132 194.22 75.7132C192.799 75.7132 191.682 75.3071 190.869 74.4947C190.108 73.6316 189.727 72.4131 189.727 70.8392V67.1836H190.336C189.981 68.9606 189.27 70.5091 188.204 71.8292C187.188 73.0985 185.894 74.0885 184.32 74.7994C182.746 75.5102 180.943 75.8656 178.913 75.8656ZM225.359 75.8656C222.059 75.8656 219.292 75.3071 217.058 74.1901C214.875 73.0731 213.25 71.4484 212.184 69.316C211.118 67.1328 210.585 64.4419 210.585 61.2433V45.0217H206.624C205.406 45.0217 204.467 44.7171 203.807 44.1078C203.147 43.4478 202.817 42.5593 202.817 41.4423C202.817 40.2746 203.147 39.3861 203.807 38.7768C204.467 38.1675 205.406 37.8629 206.624 37.8629H210.585V30.9326C210.585 29.3586 210.991 28.1655 211.803 27.3532C212.666 26.5408 213.859 26.1346 215.383 26.1346C216.906 26.1346 218.073 26.5408 218.886 27.3532C219.698 28.1655 220.104 29.3586 220.104 30.9326V37.8629H228.177C229.396 37.8629 230.335 38.1675 230.995 38.7768C231.655 39.3861 231.985 40.2746 231.985 41.4423C231.985 42.5593 231.655 43.4478 230.995 44.1078C230.335 44.7171 229.396 45.0217 228.177 45.0217H220.104V60.7102C220.104 63.1472 220.637 64.975 221.704 66.1935C222.77 67.4121 224.496 68.0213 226.882 68.0213C227.745 68.0213 228.507 67.9452 229.167 67.7929C229.827 67.6405 230.411 67.539 230.919 67.4882C231.528 67.4374 232.036 67.6405 232.442 68.0975C232.848 68.5037 233.051 69.3668 233.051 70.6868C233.051 71.7023 232.873 72.6162 232.518 73.4285C232.213 74.1901 231.629 74.7232 230.766 75.0278C230.106 75.2309 229.243 75.4086 228.177 75.5609C227.111 75.764 226.172 75.8656 225.359 75.8656ZM243.217 75.6371C241.694 75.6371 240.526 75.1801 239.714 74.2662C238.901 73.3524 238.495 72.0831 238.495 70.4584V42.5085C238.495 40.8331 238.901 39.5638 239.714 38.7006C240.526 37.7868 241.694 37.3298 243.217 37.3298C244.74 37.3298 245.908 37.7868 246.72 38.7006C247.583 39.5638 248.015 40.8331 248.015 42.5085V70.4584C248.015 72.0831 247.609 73.3524 246.796 74.2662C245.984 75.1801 244.791 75.6371 243.217 75.6371ZM243.217 30.2472C241.44 30.2472 240.044 29.8156 239.028 28.9525C238.064 28.0386 237.581 26.7947 237.581 25.2208C237.581 23.5961 238.064 22.3521 239.028 21.489C240.044 20.6259 241.44 20.1943 243.217 20.1943C245.045 20.1943 246.441 20.6259 247.406 21.489C248.37 22.3521 248.853 23.5961 248.853 25.2208C248.853 26.7947 248.37 28.0386 247.406 28.9525C246.441 29.8156 245.045 30.2472 243.217 30.2472ZM276.26 75.8656C272.046 75.8656 268.416 75.0786 265.37 73.5047C262.324 71.9307 259.963 69.6968 258.287 66.8028C256.663 63.9088 255.85 60.4817 255.85 56.5215C255.85 52.6629 256.637 49.2866 258.211 46.3926C259.836 43.4986 262.044 41.2392 264.837 39.6145C267.68 37.9391 270.904 37.1013 274.509 37.1013C277.149 37.1013 279.51 37.5329 281.591 38.396C283.724 39.2591 285.526 40.503 286.999 42.1277C288.522 43.7524 289.664 45.7325 290.426 48.068C291.238 50.3528 291.644 52.9421 291.644 55.8361C291.644 56.75 291.314 57.4608 290.654 57.9685C290.045 58.4255 289.156 58.6539 287.989 58.6539H263.542V53.1706H284.942L283.724 54.313C283.724 51.9775 283.368 50.0227 282.658 48.4488C281.998 46.8749 281.008 45.6818 279.688 44.8694C278.418 44.0063 276.819 43.5747 274.89 43.5747C272.757 43.5747 270.929 44.0824 269.406 45.0979C267.934 46.0625 266.791 47.4588 265.979 49.2866C265.218 51.0636 264.837 53.196 264.837 55.6838V56.2169C264.837 60.3802 265.801 63.5026 267.731 65.5843C269.711 67.6152 272.605 68.6306 276.413 68.6306C277.733 68.6306 279.205 68.4783 280.83 68.1736C282.505 67.8182 284.079 67.2344 285.552 66.422C286.618 65.8128 287.557 65.5589 288.369 65.6604C289.182 65.7112 289.816 65.9905 290.273 66.4982C290.781 67.0059 291.086 67.6405 291.187 68.4021C291.289 69.1129 291.137 69.8491 290.73 70.6107C290.375 71.3723 289.74 72.0323 288.826 72.5908C287.049 73.7078 284.993 74.5455 282.658 75.104C280.373 75.6117 278.241 75.8656 276.26 75.8656ZM303.905 75.7132C302.382 75.7132 301.214 75.3071 300.402 74.4947C299.589 73.6316 299.183 72.4131 299.183 70.8392V42.0516C299.183 40.4777 299.589 39.2845 300.402 38.4722C301.214 37.6598 302.357 37.2537 303.829 37.2537C305.301 37.2537 306.444 37.6598 307.256 38.4722C308.068 39.2845 308.474 40.4777 308.474 42.0516V47.2303L307.637 45.3264C308.754 42.6355 310.48 40.6046 312.815 39.2338C315.202 37.8121 317.893 37.1013 320.888 37.1013C323.884 37.1013 326.346 37.6598 328.275 38.7768C330.205 39.8938 331.652 41.5946 332.616 43.8794C333.581 46.1133 334.063 48.9565 334.063 52.409V70.8392C334.063 72.4131 333.657 73.6316 332.845 74.4947C332.033 75.3071 330.865 75.7132 329.342 75.7132C327.819 75.7132 326.625 75.3071 325.762 74.4947C324.95 73.6316 324.544 72.4131 324.544 70.8392V52.866C324.544 49.972 323.985 47.8649 322.868 46.5449C321.802 45.2248 320.127 44.5648 317.842 44.5648C315.049 44.5648 312.815 45.4533 311.14 47.2303C309.515 48.9565 308.703 51.2667 308.703 54.1606V70.8392C308.703 74.0885 307.104 75.7132 303.905 75.7132ZM360.792 75.8656C357.492 75.8656 354.725 75.3071 352.491 74.1901C350.307 73.0731 348.683 71.4484 347.617 69.316C346.55 67.1328 346.017 64.4419 346.017 61.2433V45.0217H342.057C340.839 45.0217 339.899 44.7171 339.239 44.1078C338.579 43.4478 338.249 42.5593 338.249 41.4423C338.249 40.2746 338.579 39.3861 339.239 38.7768C339.899 38.1675 340.839 37.8629 342.057 37.8629H346.017V30.9326C346.017 29.3586 346.423 28.1655 347.236 27.3532C348.099 26.5408 349.292 26.1346 350.815 26.1346C352.338 26.1346 353.506 26.5408 354.318 27.3532C355.131 28.1655 355.537 29.3586 355.537 30.9326V37.8629H363.61C364.828 37.8629 365.767 38.1675 366.427 38.7768C367.087 39.3861 367.418 40.2746 367.418 41.4423C367.418 42.5593 367.087 43.4478 366.427 44.1078C365.767 44.7171 364.828 45.0217 363.61 45.0217H355.537V60.7102C355.537 63.1472 356.07 64.975 357.136 66.1935C358.202 67.4121 359.929 68.0213 362.315 68.0213C363.178 68.0213 363.94 67.9452 364.6 67.7929C365.26 67.6405 365.844 67.539 366.351 67.4882C366.961 67.4374 367.468 67.6405 367.874 68.0975C368.281 68.5037 368.484 69.3668 368.484 70.6868C368.484 71.7023 368.306 72.6162 367.951 73.4285C367.646 74.1901 367.062 74.7232 366.199 75.0278C365.539 75.2309 364.676 75.4086 363.61 75.5609C362.543 75.764 361.604 75.8656 360.792 75.8656ZM410.848 75.8656C406.939 75.8656 403.537 75.0786 400.643 73.5047C397.749 71.88 395.515 69.5952 393.941 66.6505C392.367 63.7057 391.58 60.2532 391.58 56.2931C391.58 53.2975 392.012 50.632 392.875 48.2965C393.789 45.9102 395.084 43.9047 396.759 42.2801C398.434 40.6046 400.465 39.3353 402.852 38.4722C405.238 37.5583 407.903 37.1013 410.848 37.1013C412.524 37.1013 414.326 37.3298 416.255 37.7868C418.235 38.2437 420.089 39.0053 421.815 40.0715C422.627 40.5792 423.16 41.1885 423.414 41.8993C423.668 42.6101 423.719 43.3463 423.566 44.1078C423.414 44.8186 423.084 45.4533 422.576 46.0118C422.119 46.5195 421.536 46.8495 420.825 47.0018C420.114 47.1034 419.327 46.9257 418.464 46.4687C417.347 45.8087 416.205 45.3264 415.037 45.0217C413.869 44.6663 412.752 44.4886 411.686 44.4886C410.01 44.4886 408.538 44.7679 407.269 45.3264C405.999 45.8341 404.908 46.5957 403.994 47.6111C403.131 48.5757 402.471 49.7943 402.014 51.2667C401.557 52.739 401.328 54.4399 401.328 56.3692C401.328 60.1263 402.217 63.0965 403.994 65.2796C405.822 67.4121 408.386 68.4783 411.686 68.4783C412.752 68.4783 413.844 68.326 414.961 68.0213C416.128 67.7167 417.296 67.2344 418.464 66.5743C419.327 66.1174 420.089 65.9651 420.749 66.1174C421.459 66.2697 422.043 66.6251 422.5 67.1836C422.957 67.6913 423.236 68.326 423.338 69.0875C423.44 69.7983 423.338 70.5091 423.033 71.2199C422.78 71.9307 422.272 72.5146 421.51 72.9716C419.835 73.987 418.058 74.7232 416.179 75.1801C414.301 75.6371 412.524 75.8656 410.848 75.8656ZM441.597 75.8656C438.906 75.8656 436.494 75.3578 434.362 74.3424C432.28 73.2762 430.63 71.8546 429.412 70.0776C428.244 68.3006 427.66 66.2951 427.66 64.0611C427.66 61.3195 428.371 59.1617 429.792 57.5877C431.214 55.963 433.524 54.7953 436.723 54.0845C439.921 53.3737 444.212 53.0183 449.593 53.0183H453.401V58.5016H449.669C446.522 58.5016 444.008 58.6539 442.13 58.9586C440.251 59.2632 438.906 59.7963 438.094 60.5579C437.332 61.2687 436.951 62.2841 436.951 63.6042C436.951 65.2796 437.535 66.6505 438.703 67.7167C439.871 68.7829 441.495 69.316 443.577 69.316C445.252 69.316 446.725 68.9352 447.994 68.1736C449.314 67.3613 450.355 66.2697 451.116 64.8989C451.878 63.528 452.259 61.9541 452.259 60.1771V51.419C452.259 48.8804 451.7 47.0526 450.583 45.9356C449.466 44.8186 447.588 44.2602 444.948 44.2602C443.475 44.2602 441.876 44.4379 440.15 44.7933C438.474 45.1487 436.697 45.7579 434.819 46.621C433.854 47.078 432.991 47.2049 432.229 47.0018C431.519 46.7987 430.96 46.3926 430.554 45.7833C430.148 45.1233 429.945 44.4125 429.945 43.6509C429.945 42.8893 430.148 42.1531 430.554 41.4423C430.96 40.6807 431.646 40.1223 432.61 39.7669C434.946 38.8022 437.18 38.1168 439.312 37.7106C441.495 37.3044 443.475 37.1013 445.252 37.1013C448.908 37.1013 451.903 37.6598 454.239 38.7768C456.625 39.8938 458.402 41.5946 459.57 43.8794C460.738 46.1133 461.322 49.0073 461.322 52.5613V70.8392C461.322 72.4131 460.941 73.6316 460.179 74.4947C459.418 75.3071 458.326 75.7132 456.904 75.7132C455.483 75.7132 454.366 75.3071 453.554 74.4947C452.792 73.6316 452.411 72.4131 452.411 70.8392V67.1836H453.02C452.665 68.9606 451.954 70.5091 450.888 71.8292C449.873 73.0985 448.578 74.0885 447.004 74.7994C445.43 75.5102 443.628 75.8656 441.597 75.8656ZM475.858 75.7132C474.284 75.7132 473.066 75.3071 472.203 74.4947C471.39 73.6316 470.984 72.4131 470.984 70.8392V42.0516C470.984 40.4777 471.39 39.2845 472.203 38.4722C473.015 37.6598 474.157 37.2537 475.63 37.2537C477.102 37.2537 478.244 37.6598 479.057 38.4722C479.869 39.2845 480.275 40.4777 480.275 42.0516V46.8495H479.514C480.225 43.8032 481.621 41.4931 483.702 39.9192C485.784 38.3452 488.551 37.406 492.004 37.1013C493.07 36.9998 493.908 37.279 494.517 37.9391C495.177 38.5483 495.558 39.513 495.659 40.8331C495.761 42.1024 495.456 43.1432 494.745 43.9555C494.085 44.7171 493.07 45.174 491.699 45.3264L490.023 45.4787C486.926 45.7833 484.591 46.748 483.017 48.3727C481.443 49.9466 480.656 52.1805 480.656 55.0745V70.8392C480.656 72.4131 480.25 73.6316 479.438 74.4947C478.625 75.3071 477.432 75.7132 475.858 75.7132ZM518.567 75.8656C514.352 75.8656 510.722 75.0786 507.676 73.5047C504.63 71.9307 502.269 69.6968 500.593 66.8028C498.969 63.9088 498.156 60.4817 498.156 56.5215C498.156 52.6629 498.943 49.2866 500.517 46.3926C502.142 43.4986 504.35 41.2392 507.143 39.6145C509.986 37.9391 513.21 37.1013 516.815 37.1013C519.455 37.1013 521.816 37.5329 523.898 38.396C526.03 39.2591 527.832 40.503 529.305 42.1277C530.828 43.7524 531.97 45.7325 532.732 48.068C533.544 50.3528 533.95 52.9421 533.95 55.8361C533.95 56.75 533.62 57.4608 532.96 57.9685C532.351 58.4255 531.463 58.6539 530.295 58.6539H505.848V53.1706H527.248L526.03 54.313C526.03 51.9775 525.675 50.0227 524.964 48.4488C524.304 46.8749 523.314 45.6818 521.994 44.8694C520.724 44.0063 519.125 43.5747 517.196 43.5747C515.063 43.5747 513.236 44.0824 511.712 45.0979C510.24 46.0625 509.098 47.4588 508.285 49.2866C507.524 51.0636 507.143 53.196 507.143 55.6838V56.2169C507.143 60.3802 508.108 63.5026 510.037 65.5843C512.017 67.6152 514.911 68.6306 518.719 68.6306C520.039 68.6306 521.511 68.4783 523.136 68.1736C524.811 67.8182 526.385 67.2344 527.858 66.422C528.924 65.8128 529.863 65.5589 530.676 65.6604C531.488 65.7112 532.123 65.9905 532.58 66.4982C533.087 67.0059 533.392 67.6405 533.493 68.4021C533.595 69.1129 533.443 69.8491 533.036 70.6107C532.681 71.3723 532.046 72.0323 531.133 72.5908C529.356 73.7078 527.299 74.5455 524.964 75.104C522.679 75.6117 520.547 75.8656 518.567 75.8656Z" fill="white"/>
<defs>
<clipPath id="clip0_8012_214">
<rect width="96.208" height="96.208" rx="48.104" fill="white"/>
</clipPath>
</defs>
</svg>
